<svg xmlns="http://www.w3.org/2000/svg" viewBox="0 0 1920 1080" preserveAspectRatio="xMidYMid meet" role="img">
  <g>
    <path d="M59.5,579.1h99.6v369.1h220.7v83.7H59.5V579.1z"></path>
    <path d="M540.3,579.1h102.1L811.8,1032H708.4l-34.2-100.8H504.8L469.2,1032H368.4L540.3,579.1z M530.8,856.9h117.3L591,690.7h-1.3L530.8,856.9z"></path>
    <path d="M806.7,579.1h318.4v83.7H906.3v104.7h189.7v77.4H906.3V1032h-99.6V579.1z"></path>
    <path d="M1137.8,579.1h338.7v83.7h-239.1v97h219.5v77.4h-219.5v111H1477v83.7h-339.2V579.1z"></path>
    <path d="M1488.5,579.1h244.2c81.2,0,132.6,56.5,132.6,125c0,53.3-21.6,93.2-71.7,113.5v1.3c48.8,12.7,62.8,60.3,66,105.9c1.9,28.5,1.3,81.8,19,107.2H1779c-12.1-28.5-10.8-72.3-15.9-108.5c-7-47.6-25.4-68.5-75.5-68.5h-99.6v177h-99.6L1488.5,579.1L1488.5,579.1z M1588.1,784h109.1c44.4,0,68.5-19,68.5-64.7c0-43.8-24.1-62.8-68.5-62.8h-109.1V784z"></path>
  </g>
  <g>
    <path d="M352.2,452.4v14.9c0,8.2-5.2,11.4-10.6,11.4s-10.6-3.2-10.6-11.4v-7.6h-11.9v-7.3L352.2,452.4L352.2,452.4z M336.6,459.7   v5.7c0,3.4,0.7,6.4,5,6.4s5-3,5-6.4v-5.7H336.6z"></path>
    <path d="M352.2,481.4v24.7h-6.1v-17.5H339v16h-5.7v-16h-8.1v17.8h-6.1v-25.1L352.2,481.4L352.2,481.4z"></path>
    <path d="M352.2,509.6v17.8c0,5.9-4.1,9.7-9.1,9.7c-3.9,0-6.8-1.6-8.3-5.2h-0.1c-0.9,3.6-4.4,4.6-7.7,4.8c-2.1,0.1-6,0.1-7.8,1.4   v-7.3c2.1-0.9,5.3-0.8,7.9-1.2c3.5-0.5,5-1.8,5-5.5v-7.3h-12.9v-7.3L352.2,509.6L352.2,509.6z M337.2,516.8v8c0,3.2,1.4,5,4.7,5   c3.2,0,4.6-1.8,4.6-5v-8H337.2z"></path>
    <path d="M341.1,563.2c3.3-0.5,5.8-3.6,5.8-7.2c0-6.5-5.5-9-11.3-9c-5.5,0-11.1,2.5-11.1,9c0,4.5,3,7,7.4,7.5v7   c-8.2-0.7-13.5-6.4-13.5-14.5c0-10.2,7.6-16.2,17.2-16.2c9.8,0,17.5,6,17.5,16.2c0,7.3-4.3,13.4-11.9,14.3L341.1,563.2L341.1,563.2   z"></path>
    <path d="M352.2,573.6v7.3h-33v-7.3H352.2z"></path>
    <path d="M319.1,600.8v-8.2l33-10.7v7.5l-23.2,7.4v0.1l23.2,7.5v7.5L319.1,600.8z"></path>
    <path d="M352.2,619.6v7.4l-33,12.4v-7.5l7.4-2.5V617l-7.4-2.6v-7.4L352.2,619.6z M331.9,618.9v8.6l12.1-4.2v-0.1L331.9,618.9z"></path>
    <path d="M352.2,640.4v7.3h-26.9v16.1h-6.1v-23.4H352.2L352.2,640.4z"></path>
  </g>
</svg>